<svg width="200" height="60" viewBox="0 0 200 60" fill="none" xmlns="http://www.w3.org/2000/svg">
<mask id="mask0_3154_2926" style="mask-type:luminance" maskUnits="userSpaceOnUse" x="2" y="7" width="195" height="47">
<path d="M197 7H2V54H197V7Z" fill="white"/>
</mask>
<g mask="url(#mask0_3154_2926)">
<path d="M32.2644 41.9039C32.2644 42.5119 32.0244 43.0079 31.5444 43.3919C31.0644 43.7439 30.5364 43.9199 29.9604 43.9199H8.74437V41.6159H27.8484C27.9444 41.1359 28.1844 40.7039 28.5684 40.3199C28.9844 39.9359 29.4484 39.7439 29.9604 39.7439C30.6004 39.7439 31.1444 39.9519 31.5924 40.3679C32.0404 40.7519 32.2644 41.2639 32.2644 41.9039ZM39.8004 44.3999C39.8004 45.4879 39.5764 46.5759 39.1284 47.6639C38.6804 48.7519 37.9924 49.6159 37.0644 50.2559C36.1684 50.8639 35.1604 51.2319 34.0404 51.3599C32.9204 51.4879 31.8324 51.5519 30.7764 51.5519H8.26437V48.9599H29.2404C30.5844 48.9599 31.6084 48.6559 32.3124 48.0479C33.0484 47.4399 33.4164 46.4479 33.4164 45.0719V36.8639H8.16838V34.4639H39.8004V44.3999ZM19.1124 27.5039C19.1124 27.8559 18.8084 28.3199 18.2004 28.8959C17.6244 29.4399 16.9044 30.0159 16.0404 30.6239C15.2084 31.1999 14.4084 31.7119 13.6404 32.1599C12.9044 32.6079 12.3604 32.9119 12.0084 33.0719C11.9124 32.9759 11.7204 32.7519 11.4324 32.3999C11.1444 32.0479 10.8404 31.6639 10.5204 31.2479C10.2004 30.7999 9.92836 30.3999 9.70436 30.0479C9.48036 29.6959 9.36837 29.4719 9.36837 29.3759C9.36837 29.1839 9.43237 29.0559 9.56037 28.9919C9.68837 28.9279 9.81637 28.8799 9.94437 28.8479C10.2004 28.7839 10.4564 28.7359 10.7124 28.7039C10.9684 28.6719 11.2084 28.6399 11.4324 28.6079C12.0724 28.4799 12.6964 28.3679 13.3044 28.2719C13.9444 28.1439 14.5684 28.0159 15.1764 27.8879C15.6244 27.7919 16.2004 27.6479 16.9044 27.4559C17.6084 27.2639 18.1844 27.1679 18.6324 27.1679C18.7284 27.1679 18.8244 27.1999 18.9204 27.2639C19.0484 27.2959 19.1124 27.3759 19.1124 27.5039ZM19.4004 24.9599C19.4004 25.1839 19.3044 25.3439 19.1124 25.4399C18.9524 25.5359 18.7764 25.5839 18.5844 25.5839C18.4564 25.5839 18.3124 25.5839 18.1524 25.5839C17.9924 25.5519 17.8324 25.5199 17.6724 25.4879C16.5524 25.2959 15.4004 25.1519 14.2164 25.0559C13.0644 24.9279 11.9284 24.7679 10.8084 24.5759C11.0964 23.9679 11.3684 23.3439 11.6244 22.7039C11.8804 22.0639 12.1844 21.4719 12.5364 20.9279C12.6644 20.7039 12.8404 20.5919 13.0644 20.5919C13.2884 20.5919 13.7364 20.7679 14.4084 21.1199C15.0804 21.4399 15.8004 21.8559 16.5684 22.3679C17.3364 22.8479 17.9924 23.3279 18.5364 23.8079C19.1124 24.2879 19.4004 24.6719 19.4004 24.9599ZM37.3044 31.6799C37.3044 31.9039 37.2084 32.0799 37.0164 32.2079C36.8244 32.3039 36.6324 32.3519 36.4404 32.3519C36.0244 32.3519 35.4004 32.2719 34.5684 32.1119C33.7364 31.9199 32.8404 31.6959 31.8804 31.4399C30.9204 31.1519 30.0244 30.8639 29.1924 30.5759C28.3924 30.2879 27.8004 30.0479 27.4164 29.8559C27.1604 29.7599 27.0324 29.5839 27.0324 29.3279C27.0324 29.2319 27.1764 29.0399 27.4644 28.7519C27.7844 28.4319 28.1524 28.0959 28.5684 27.7439C28.9844 27.3599 29.3844 27.0399 29.7684 26.7839C30.1524 26.5279 30.4404 26.3999 30.6324 26.3999C30.8564 26.3999 31.0964 26.4959 31.3524 26.6879C31.9604 27.1039 32.5364 27.5519 33.0804 28.0319C33.6564 28.5119 34.2324 28.9759 34.8084 29.4239C35.1604 29.7119 35.5284 29.9999 35.9124 30.2879C36.3284 30.5439 36.6964 30.8319 37.0164 31.1519C37.0804 31.2159 37.1444 31.2959 37.2084 31.3919C37.2724 31.4559 37.3044 31.5519 37.3044 31.6799ZM45.6564 17.3759C45.6564 17.8559 45.4804 18.4799 45.1284 19.2479C44.7764 20.0159 44.3124 20.8319 43.7364 21.6959C43.1924 22.5599 42.5844 23.3919 41.9124 24.1919C41.2404 24.9599 40.5684 25.5839 39.8964 26.0639C39.2564 26.5439 38.6804 26.7839 38.1684 26.7839C37.9124 26.7839 37.7044 26.6879 37.5444 26.4959C37.3844 26.2719 37.3044 26.0479 37.3044 25.8239C37.3044 25.4719 37.3364 25.1039 37.4004 24.7199C37.4644 24.3039 37.5124 23.9199 37.5444 23.5679C37.6404 22.8319 37.7364 22.1119 37.8324 21.4079C37.9284 20.6719 37.9924 19.9359 38.0244 19.1999H25.8324V31.3439H20.0244V19.1999H8.98438V26.7359H2.98438V16.8959H20.0244V13.1039H8.21636V10.7519H32.6964C32.7604 9.85593 33.0804 9.11993 33.6564 8.54393C34.2324 7.96793 34.9684 7.67993 35.8644 7.67993C36.6004 7.67993 37.3044 7.91993 37.9764 8.39993C38.6484 8.87993 38.9844 9.51993 38.9844 10.3199C38.9844 11.2799 38.6964 11.9839 38.1204 12.4319C37.5444 12.8799 36.7924 13.1039 35.8644 13.1039H25.8324V16.8959H45.1764C45.4964 16.8959 45.6564 17.0559 45.6564 17.3759ZM35.7204 23.5199C35.7204 23.7119 35.6084 23.8879 35.3844 24.0479C35.3524 24.0799 35.0644 24.1439 34.5204 24.2399C33.9764 24.3359 33.3204 24.4479 32.5524 24.5759C31.7844 24.6719 31.0004 24.7679 30.2004 24.8639C29.4324 24.9599 28.7444 25.0399 28.1364 25.1039C27.5604 25.1679 27.1924 25.1999 27.0324 25.1999C26.7124 25.1999 26.5524 25.0399 26.5524 24.7199C26.5524 24.5919 26.6164 24.4639 26.7444 24.3359C26.9684 24.0799 27.2244 23.8719 27.5124 23.7119C27.8324 23.5199 28.1204 23.3279 28.3764 23.1359C29.1444 22.5919 29.8964 22.0479 30.6324 21.5039C31.4004 20.9599 32.1684 20.4319 32.9364 19.9199C33.0324 20.0159 33.2244 20.2399 33.5124 20.5919C33.8324 20.9119 34.1524 21.2799 34.4724 21.6959C34.8244 22.1119 35.1124 22.4959 35.3364 22.8479C35.5924 23.1999 35.7204 23.4239 35.7204 23.5199ZM93.9444 15.1199C93.9444 15.8239 93.6884 16.4159 93.1764 16.8959C92.6964 17.3759 92.1044 17.6159 91.4004 17.6159C86.4724 17.6159 81.5444 17.6159 76.6164 17.6159C71.7204 17.5839 66.8084 17.5679 61.8804 17.5679L67.5924 20.1119C66.6324 21.7759 65.5924 23.3919 64.4724 24.9599C63.3524 26.4959 62.1684 27.9839 60.9204 29.4239H63.6084V51.5519H58.3284V31.8239C57.4324 32.5279 56.5044 33.1999 55.5444 33.8399C54.5844 34.4799 53.5764 35.0079 52.5204 35.4239C52.3924 35.4559 52.2004 35.5359 51.9444 35.6639C51.7204 35.7599 51.5284 35.8079 51.3684 35.8079C51.0804 35.8079 50.9364 35.6639 50.9364 35.3759C50.9364 35.2479 50.9844 35.1359 51.0804 35.0399C52.0084 34.0159 52.8884 33.0079 53.7204 32.0159C54.5844 31.0239 55.3844 29.9679 56.1204 28.8479C57.3044 27.0879 58.3764 25.2639 59.3364 23.3759C60.3284 21.4879 61.1764 19.5519 61.8804 17.5679H51.9444V15.3119H69.8004C69.6084 13.3919 69.5124 11.4559 69.5124 9.50393C69.5124 9.18393 69.5124 8.87993 69.5124 8.59193C69.5124 8.30393 69.5284 7.99993 69.5604 7.67993C69.8484 7.71193 70.3764 7.75993 71.1444 7.82393C71.9444 7.85593 72.7924 7.91993 73.6884 8.01593C74.6164 8.07993 75.4164 8.15993 76.0884 8.25593C76.7924 8.35193 77.2084 8.46393 77.3364 8.59193C77.4324 8.68793 77.4804 8.78393 77.4804 8.87993C77.5124 8.97593 77.5284 9.08793 77.5284 9.21593C77.5284 9.43993 77.3844 9.83993 77.0964 10.4159C76.8084 10.9599 76.4564 11.5679 76.0404 12.2399C75.6564 12.9119 75.2724 13.5359 74.8884 14.1119C74.5364 14.6559 74.2644 15.0559 74.0724 15.3119H88.0404C88.0404 14.4799 88.3284 13.7919 88.9044 13.2479C89.5124 12.7039 90.2164 12.4319 91.0164 12.4319C91.6884 12.4319 92.3444 12.7039 92.9844 13.2479C93.6244 13.7599 93.9444 14.3839 93.9444 15.1199ZM95.3364 49.6319C95.3364 50.3359 95.0164 50.8959 94.3764 51.3119C93.7364 51.7279 93.0964 51.9359 92.4564 51.9359C92.2324 51.9359 92.0244 51.9199 91.8324 51.8879C91.6404 51.8879 91.4324 51.8719 91.2084 51.8399C88.6164 51.3599 86.1364 50.3839 83.7684 48.9119C81.4004 47.4399 79.2724 45.8079 77.3844 44.0159C76.4244 44.7839 75.3044 45.5359 74.0244 46.2719C72.7444 47.0079 71.4164 47.6159 70.0404 48.0959C68.6644 48.5759 67.3524 48.8159 66.1044 48.8159C65.9764 48.8159 65.8164 48.7839 65.6244 48.7199C65.4644 48.6879 65.3844 48.5919 65.3844 48.4319C65.3844 48.2719 65.4804 48.1599 65.6724 48.0959C66.1524 47.8399 66.6324 47.5999 67.1124 47.3759C67.5924 47.1519 68.0564 46.8959 68.5044 46.6079C70.8404 45.1359 72.9364 43.4079 74.7924 41.4239C73.8644 40.3039 73.0004 39.1679 72.2004 38.0159C71.4324 36.8319 70.6804 35.6159 69.9444 34.3679L73.7844 31.0559C74.3284 32.2399 74.9364 33.3759 75.6084 34.4639C76.3124 35.5199 77.0324 36.5599 77.7684 37.5839C78.2484 36.9439 78.6804 36.2559 79.0644 35.5199C79.4484 34.7839 79.8004 34.0639 80.1204 33.3599C79.2564 32.9119 78.3764 32.4959 77.4804 32.1119C76.6164 31.6959 75.7364 31.3119 74.8404 30.9599C75.2564 30.3839 75.6724 29.8079 76.0884 29.2319C76.5364 28.6239 76.9684 28.0479 77.3844 27.5039C78.1204 28.0479 78.7764 28.6719 79.3524 29.3759C79.9284 30.0479 80.4724 30.7519 80.9844 31.4879C81.3044 30.5919 81.5924 29.6799 81.8484 28.7519C82.1364 27.8239 82.3604 26.8959 82.5204 25.9679H75.8484C75.1444 26.9279 74.3124 27.9999 73.3524 29.1839C72.3924 30.3359 71.3684 31.4079 70.2804 32.3999C69.2244 33.3919 68.1364 34.1439 67.0164 34.6559C66.8884 34.6879 66.7604 34.7359 66.6324 34.7999C66.5364 34.8319 66.4244 34.8479 66.2964 34.8479C66.0084 34.8479 65.8644 34.6879 65.8644 34.3679C65.8644 34.3039 65.9604 34.1279 66.1524 33.8399C66.3764 33.5199 66.6324 33.1519 66.9204 32.7359C67.2084 32.3199 67.4804 31.9359 67.7364 31.5839C67.9924 31.2319 68.1524 30.9919 68.2164 30.8639C69.4324 28.8479 70.4724 26.7679 71.3364 24.6239C72.2324 22.4479 73.0004 20.2399 73.6404 17.9999L79.1604 20.1119C78.5844 21.2959 77.9604 22.4959 77.2884 23.7119H89.0484C88.5044 26.8479 87.4964 29.9359 86.0244 32.9759C84.5524 35.9839 82.7284 38.6559 80.5524 40.9919C81.8004 42.6559 83.2244 44.1599 84.8244 45.5039C86.4564 46.8479 88.1524 48.0319 89.9124 49.0559C90.1684 48.5119 90.5204 48.0319 90.9684 47.6159C91.4484 47.1999 92.0084 46.9919 92.6484 46.9919C93.4164 46.9919 94.0564 47.2319 94.5684 47.7119C95.0804 48.1919 95.3364 48.8319 95.3364 49.6319ZM161.528 38.3999H157.448V49.1999H158.888C159.624 49.1999 160.168 48.8959 160.52 48.2879C160.904 47.7119 161.16 47.0399 161.288 46.2719C161.448 45.5039 161.528 44.8479 161.528 44.3039V38.3999ZM185.144 38.7839H175.352V49.3439H182.024C182.792 49.3439 183.4 49.1039 183.848 48.6239C184.328 48.1759 184.664 47.6159 184.856 46.9439C185.048 46.2399 185.144 45.5679 185.144 44.9279V38.7839ZM183.56 31.0079V22.5599H180.152L178.088 31.0079H183.56ZM166.76 43.8719C166.76 46.3679 166.056 48.1919 164.648 49.3439C163.272 50.4959 161.4 51.0719 159.032 51.0719H152.216V36.4319H166.76V43.8719ZM165.992 30.0959C165.992 30.6079 165.784 31.0719 165.368 31.4879C164.952 31.9039 164.488 32.1119 163.976 32.1119H152.936V29.9039H161.288C161.352 29.2639 161.624 28.7839 162.104 28.4639C162.616 28.1439 163.16 27.9839 163.736 27.9839C164.28 27.9839 164.792 28.2079 165.272 28.6559C165.752 29.0719 165.992 29.5519 165.992 30.0959ZM165.992 23.7119C165.992 24.2239 165.784 24.6879 165.368 25.1039C164.952 25.5199 164.488 25.7279 163.976 25.7279H152.936V23.5199H161.288C161.352 22.8799 161.624 22.3999 162.104 22.0799C162.616 21.7599 163.16 21.5999 163.736 21.5999C164.28 21.5999 164.792 21.8239 165.272 22.2719C165.752 22.6879 165.992 23.1679 165.992 23.7119ZM190.952 44.2559C190.952 47.1039 190.264 49.0559 188.888 50.1119C187.544 51.1679 185.512 51.6959 182.792 51.6959H170.024V36.5759H190.952V44.2559ZM169.016 16.7999C169.016 17.4079 168.808 17.9359 168.392 18.3839C167.976 18.7999 167.464 19.0079 166.856 19.0079H149.96V16.7999H157.736C157.416 15.4879 157.128 14.1599 156.872 12.8159C156.648 11.4719 156.424 10.1279 156.2 8.78393C156.488 8.78393 157 8.79993 157.736 8.83193C158.504 8.83193 159.336 8.86393 160.232 8.92793C161.128 8.95993 161.912 9.02393 162.584 9.11993C163.288 9.18393 163.704 9.26393 163.832 9.35993C163.928 9.45593 163.976 9.61593 163.976 9.83993C163.976 10.0639 163.848 10.4959 163.592 11.1359C163.368 11.7759 163.096 12.4799 162.776 13.2479C162.456 14.0159 162.136 14.7359 161.816 15.4079C161.528 16.0799 161.32 16.5439 161.192 16.7999H164.024C164.024 16.1279 164.28 15.5839 164.792 15.1679C165.304 14.7199 165.88 14.4959 166.52 14.4959C167.096 14.4959 167.656 14.7359 168.2 15.2159C168.744 15.6639 169.016 16.1919 169.016 16.7999ZM196.376 30.5759C196.376 31.2159 196.104 31.8079 195.56 32.3519C195.016 32.8959 194.424 33.1679 193.784 33.1679H166.04V31.0079H172.472L174.248 22.5599H168.728L168.776 20.3999H174.776L176.216 13.7279H168.008V11.4239H187.16C187.16 10.6239 187.464 9.90393 188.072 9.26393C188.68 8.62393 189.384 8.30393 190.184 8.30393C190.92 8.30393 191.592 8.59193 192.2 9.16793C192.84 9.74393 193.16 10.3999 193.16 11.1359C193.16 11.8079 192.904 12.4159 192.392 12.9599C191.912 13.4719 191.32 13.7279 190.616 13.7279H182.312L180.68 20.3999H189.272V31.0079H190.664C190.728 30.1759 191.032 29.4719 191.576 28.8959C192.12 28.2879 192.808 27.9839 193.64 27.9839C194.312 27.9839 194.936 28.2399 195.512 28.7519C196.088 29.2639 196.376 29.8719 196.376 30.5759Z" fill="#313131"/>
<path d="M126.104 43.008C126.104 43.136 126.024 43.28 125.864 43.44C125.704 43.568 125.544 43.632 125.384 43.632C125.256 43.632 125.144 43.632 125.048 43.632C124.952 43.632 124.84 43.616 124.712 43.584C124.488 43.552 124.072 43.44 123.464 43.248C122.856 43.024 122.168 42.768 121.4 42.48C120.632 42.16 119.88 41.84 119.144 41.52C118.408 41.2 117.784 40.896 117.272 40.608C116.792 40.32 116.52 40.096 116.456 39.936C116.552 39.808 116.776 39.6 117.128 39.312C117.512 38.992 117.928 38.672 118.376 38.352C118.856 38 119.272 37.712 119.624 37.488C120.008 37.232 120.248 37.104 120.344 37.104C120.536 37.104 120.728 37.2 120.92 37.392C121.592 38 122.28 38.688 122.984 39.456C123.688 40.192 124.344 40.912 124.952 41.616C125.112 41.808 125.272 42 125.432 42.192C125.624 42.352 125.8 42.528 125.96 42.72C126.056 42.816 126.104 42.912 126.104 43.008ZM114.296 36.768C113.976 38.016 113.64 39.296 113.288 40.608C112.968 41.888 112.584 43.12 112.136 44.304H128.552C128.872 43.056 129.112 41.808 129.272 40.56C129.464 39.28 129.624 38.016 129.752 36.768H114.296ZM115.976 28.032C115.784 29.12 115.576 30.224 115.352 31.344C115.16 32.432 114.936 33.52 114.68 34.608H118.856L118.808 34.56C118.872 34.272 118.968 33.968 119.096 33.648C119.256 33.328 119.384 33.04 119.48 32.784C119.768 32.048 120.056 31.328 120.344 30.624C120.664 29.888 120.936 29.152 121.16 28.416C121.352 28.512 121.704 28.656 122.216 28.848C122.728 29.04 123.272 29.264 123.848 29.52C124.456 29.744 124.984 29.968 125.432 30.192C125.912 30.384 126.184 30.528 126.248 30.624C126.312 30.688 126.344 30.768 126.344 30.864C126.344 30.96 126.344 31.04 126.344 31.104C126.344 31.296 126.12 31.568 125.672 31.92C125.224 32.272 124.68 32.64 124.04 33.024C123.4 33.376 122.808 33.712 122.264 34.032C121.72 34.32 121.352 34.512 121.16 34.608H130.04C130.168 33.488 130.264 32.384 130.328 31.296C130.424 30.208 130.504 29.12 130.568 28.032H115.976ZM146.024 34.272C146.024 35.04 145.736 35.648 145.16 36.096C144.616 36.544 143.976 36.768 143.24 36.768H135.128C134.936 37.984 134.744 39.216 134.552 40.464C134.36 41.712 134.136 42.96 133.88 44.208H138.008C138.072 43.472 138.344 42.848 138.824 42.336C139.304 41.792 139.912 41.52 140.648 41.52C141.288 41.52 141.896 41.776 142.472 42.288C143.048 42.8 143.336 43.376 143.336 44.016C143.336 44.816 143.096 45.424 142.616 45.84C142.136 46.256 141.512 46.464 140.744 46.464H133.4C133.048 47.648 132.568 48.752 131.96 49.776C131.384 50.8 130.616 51.616 129.656 52.224C128.728 52.864 127.56 53.184 126.152 53.184C125.544 53.184 124.776 52.944 123.848 52.464C122.952 51.984 122.088 51.424 121.256 50.784C120.424 50.176 119.816 49.632 119.432 49.152C119.368 49.088 119.336 49.008 119.336 48.912C119.336 48.816 119.4 48.768 119.528 48.768C119.656 48.768 119.752 48.784 119.816 48.816C120.648 49.04 121.48 49.232 122.312 49.392C123.176 49.552 124.024 49.632 124.856 49.632C125.688 49.632 126.36 49.28 126.872 48.576C127.384 47.872 127.736 47.168 127.928 46.464C126.552 46.464 125.176 46.48 123.8 46.512C122.424 46.512 121.048 46.512 119.672 46.512H107.816C107.656 46.512 107.496 46.512 107.336 46.512C107.176 46.48 107.016 46.464 106.856 46.464C106.696 46.464 106.616 46.336 106.616 46.08C106.616 45.856 106.68 45.584 106.808 45.264C107.256 44.048 107.704 42.656 108.152 41.088C108.6 39.488 108.952 38.048 109.208 36.768H101.288V34.608H109.592C109.944 33.168 110.264 31.728 110.552 30.288C110.84 28.848 111.08 27.392 111.272 25.92H136.28C136.152 27.36 136.008 28.816 135.848 30.288C135.72 31.728 135.576 33.168 135.416 34.608H140.264C140.264 33.776 140.504 33.056 140.984 32.448C141.496 31.808 142.184 31.488 143.048 31.488C143.72 31.488 144.376 31.776 145.016 32.352C145.688 32.896 146.024 33.536 146.024 34.272ZM143.96 12.144C143.96 13.136 143.624 13.824 142.952 14.208C142.312 14.592 141.56 14.784 140.696 14.784H130.28C130.12 15.104 129.864 15.536 129.512 16.08C129.16 16.592 128.76 17.136 128.312 17.712C127.896 18.256 127.464 18.72 127.016 19.104C126.568 19.488 126.152 19.68 125.768 19.68C125.384 19.68 125.192 19.472 125.192 19.056C125.192 18.48 125.256 17.776 125.384 16.944C125.512 16.112 125.592 15.392 125.624 14.784H118.904L119.096 18.384L115.784 18.576C115.56 18.928 115.336 19.296 115.112 19.68C114.888 20.064 114.648 20.432 114.392 20.784H136.568C136.632 20.016 136.92 19.344 137.432 18.768C137.944 18.16 138.6 17.856 139.4 17.856C140.072 17.856 140.728 18.112 141.368 18.624C142.008 19.136 142.328 19.76 142.328 20.496C142.328 21.2 142.024 21.808 141.416 22.32C140.84 22.8 140.216 23.04 139.544 23.04H112.712C112.168 23.712 111.448 24.432 110.552 25.2C109.656 25.936 108.728 26.64 107.768 27.312C106.808 27.952 105.944 28.48 105.176 28.896C104.856 29.056 104.456 29.264 103.976 29.52C103.496 29.744 103.08 29.856 102.728 29.856C102.472 29.856 102.344 29.728 102.344 29.472C102.344 29.28 102.392 29.136 102.488 29.04C102.584 28.944 102.696 28.832 102.824 28.704C103.848 27.648 104.824 26.432 105.752 25.056C106.68 23.68 107.512 22.256 108.248 20.784C109.016 19.312 109.624 17.888 110.072 16.512C110.68 16.672 111.272 16.832 111.848 16.992C112.456 17.152 113.064 17.296 113.672 17.424L113.48 14.784H101.576V12.432H113.288L113 8.39998L118.52 8.20798L118.76 12.432H125.864C125.992 11.568 126.088 10.704 126.152 9.83998C126.216 8.94398 126.264 8.04798 126.296 7.15198C127.032 7.24798 127.768 7.35998 128.504 7.48798C129.24 7.58398 129.96 7.67998 130.664 7.77598C130.952 7.80798 131.272 7.83998 131.624 7.87198C132.008 7.90398 132.328 7.96798 132.584 8.06398C132.776 8.12798 132.888 8.19198 132.92 8.25598C132.984 8.28798 133.016 8.41598 133.016 8.63998C133.016 8.89598 132.904 9.27998 132.68 9.79198C132.488 10.304 132.264 10.816 132.008 11.328C131.752 11.808 131.544 12.176 131.384 12.432H137.96C138.024 11.632 138.328 10.928 138.872 10.32C139.416 9.67998 140.104 9.35998 140.936 9.35998C141.672 9.35998 142.36 9.63198 143 10.176C143.64 10.72 143.96 11.376 143.96 12.144Z" fill="#E89018"/>
</g>
</svg>
