<svg width="60" height="48" viewBox="0 0 60 48" fill="none" xmlns="http://www.w3.org/2000/svg">
<path fill-rule="evenodd" clip-rule="evenodd" d="M10.6365 31.0934C9.38193 28.6934 8.18193 26.2401 8.48193 23.4401C8.91829 19.3601 10.7456 15.7601 13.1183 12.4267C16.391 7.8134 21.1092 5.14674 26.2637 2.96007C28.8818 1.89342 31.4727 1.20009 34.0636 2.13342C36.9273 3.17343 39.9273 3.33343 42.7636 4.2401C50.4 6.66676 55.7727 11.3867 57.7636 19.1467C58.3636 21.5467 59.0455 23.9734 59.0455 26.5068C59.0455 28.6934 58.5545 30.6668 57.2182 32.4268C57.0545 32.6668 56.9455 32.9601 56.7818 33.2268C56.7093 33.2446 56.6275 33.2534 56.5364 33.2534C56.5364 33.0401 56.5091 32.8268 56.4818 32.6401C54.6273 33.5734 53.1273 35.0668 50.9182 35.1468C50.5364 35.1734 50.7545 35.4668 50.7818 35.6534C49.9636 36.5601 49.1727 37.4401 48.6 38.5068C47.8636 39.8668 46.7182 40.4001 45.3545 39.8934C44.5364 39.6001 43.7727 39.1201 43.2818 38.2668C42.8455 37.4934 42.3 37.2801 41.4273 37.9734C40.2273 38.9334 39.1364 40.0001 37.7455 40.6934C37.4182 40.8534 36.4364 40.9601 36.7636 41.8401C36.4091 41.8401 36.0818 41.8134 35.7273 41.8401C33.9818 41.9468 32.7818 43.2001 31.2545 43.7334C29.4273 43.8668 28.2545 43.1468 27.7364 41.3868C27.4909 40.4801 27.1637 40.0268 26.1001 39.8668C25.3637 39.7334 24.3819 39.6534 23.8365 38.8801C23.4001 37.8668 22.691 36.9601 22.4183 35.8668C22.0637 34.6134 21.7365 34.6134 20.8092 35.6534C19.2819 36.1068 17.7547 37.0134 16.1456 35.9201C15.7637 34.8534 14.5092 34.6401 13.9092 33.7868C12.8728 32.2934 11.9183 30.8001 11.3728 29.0668C10.1456 29.6001 11.0456 30.4268 10.9092 31.0934C10.8183 31.0934 10.7274 31.0934 10.6365 31.0934ZM31.2545 16.8534C30.9 16.8534 30.5182 16.8268 30.1636 16.8534C28.4727 17.0934 27.6273 17.9201 27.6818 19.2534C27.8182 23.2534 32.4545 25.3868 35.2636 25.3868C36.4909 25.3601 37.7182 24.4801 38.7 23.6267C39.2182 23.1734 39.5455 22.4001 39.0818 21.7868C37.1182 19.1734 34.8545 17.0134 31.2545 16.8534Z" fill="#F6BE71"/>
<path d="M23.8365 38.8799C24.3819 39.6532 25.3638 39.7332 26.1001 39.8666C27.1638 40.0266 27.4909 40.4799 27.7364 41.3866C28.2546 43.1466 29.4273 43.8666 31.2546 43.7332C33.4364 44.0266 35.1273 43.0399 36.7637 41.8399C38.7546 41.1999 40.1182 39.5466 41.9727 38.5599C42.3546 39.1199 42.9 39.3599 43.2818 39.7332C44.7273 41.1466 45.6818 41.3866 47.3727 40.4532C49.3091 39.4132 50.3727 37.7599 50.7818 35.6532C52.9636 36.3732 54.9546 35.5466 56.5364 33.2532C56.6275 33.2532 56.7093 33.2444 56.7818 33.2266C57.5727 35.8666 56.4 39.0932 54.0818 40.6666C52.2818 41.8666 50.4 42.8799 48.3273 43.4666C45.8727 44.1599 43.7455 45.5999 41.1546 46.0266C38.5636 46.4799 36.0273 46.4799 33.4364 45.9199C30.0273 45.1466 26.6183 44.3999 23.3456 43.1466C22.7183 42.9066 22.0092 42.7732 21.6274 42.1066C21.6547 40.6666 20.1001 40.7732 19.3365 39.8932C20.8365 39.6799 21.8729 42.0532 23.5638 40.5599C23.1274 40.3199 22.8547 40.9066 22.4183 40.5599C22.4456 39.6266 21.9001 39.4399 20.9729 39.9999C21.2729 39.1732 21.6547 38.7732 22.4183 39.2266C22.8819 39.4932 23.2092 39.4666 23.291 38.8799C23.4729 38.8799 23.6547 38.8799 23.8365 38.8799Z" fill="#E8CFA1"/>
<path d="M23.291 38.8799C23.2092 39.4666 22.8819 39.4933 22.4183 39.2266C21.6546 38.7733 21.2728 39.1733 20.9728 39.9999C21.9001 39.4399 22.4456 39.6266 22.4183 40.5599C22.8546 40.9066 23.1273 40.3199 23.5637 40.5599C21.8728 42.0533 20.8364 39.6799 19.3364 39.8933C20.1001 40.7733 21.6546 40.6666 21.6273 42.1066C19.5546 41.6799 17.9183 40.3733 16.3364 39.1466C14.2637 37.4933 12.2183 35.7599 11.1819 33.1999C10.9092 32.5333 10.3092 31.9199 10.6364 31.0933C10.7274 31.0933 10.8183 31.0933 10.9092 31.0933C11.5364 31.8933 12.191 32.6933 12.8183 33.5199C13.6092 34.6133 14.6728 35.5999 16.1456 35.9199C17.7546 37.0133 19.2819 36.1066 20.8092 35.6533C21.6273 36.7378 22.4546 37.8133 23.291 38.8799Z" fill="#ECD5AD"/>
<path d="M50.7818 35.6533C50.3727 37.76 49.3091 39.4133 47.3727 40.4533C45.6818 41.3867 44.7273 41.1467 43.2818 39.7333C42.9 39.36 42.3545 39.12 41.9727 38.56C40.1182 39.5467 38.7545 41.2 36.7636 41.84C36.4363 40.96 37.4182 40.8533 37.7454 40.6933C39.1363 40 40.2273 38.9333 41.4273 37.9733C42.3 37.28 42.8454 37.4933 43.2818 38.2667C43.7727 39.12 44.5363 39.6 45.3545 39.8933C46.7182 40.4 47.8636 39.8667 48.6 38.5067C49.1727 37.44 49.9636 36.5333 50.7818 35.6533Z" fill="#EF9E73"/>
<path d="M56.5367 33.2535C54.9548 35.5468 52.9639 36.3735 50.7821 35.6535C50.7548 35.4668 50.5367 35.1735 50.9185 35.1468C53.1276 35.0668 54.6276 33.5735 56.4821 32.6401C56.5094 32.8268 56.5367 33.0401 56.5367 33.2535Z" fill="#DE814E"/>
<path d="M16.1456 35.9202C14.6728 35.6002 13.6092 34.6136 12.8183 33.5202C12.191 32.6936 11.5365 31.8936 10.9092 31.0936C11.0456 30.4269 10.1456 29.6002 11.3728 29.0669C11.9183 30.8002 12.8728 32.2936 13.9092 33.7869C14.5092 34.6402 15.7637 34.8536 16.1456 35.9202Z" fill="#F89340"/>
<path d="M36.7639 41.84C35.1275 43.04 33.4366 44.0266 31.2548 43.7333C32.7821 43.2 33.9821 41.9466 35.7276 41.84C36.0821 41.8133 36.4094 41.84 36.7639 41.84Z" fill="#EF9E73"/>
<path d="M23.2911 38.8798C22.4548 37.8131 21.6275 36.7377 20.8093 35.6531C21.7366 34.6131 22.0639 34.6131 22.4184 35.8665C22.6911 36.9598 23.4002 37.8665 23.8366 38.8798C23.6548 38.8798 23.473 38.8798 23.2911 38.8798Z" fill="#F3925E"/>
<path fill-rule="evenodd" clip-rule="evenodd" d="M51.0548 34.1068C53.7275 27.6535 53.1821 21.3601 49.5821 15.3335C45.5185 8.56014 39.4639 4.72014 31.5275 3.6268C31.1457 3.57347 30.6821 3.68014 30.5457 2.9868C31.6094 2.72014 32.6457 3.01347 33.6275 3.25347C36.3003 3.9468 38.9185 4.88014 41.4275 6.0268C43.773 7.09347 45.3275 9.0668 47.0185 10.8268C52.2275 16.2401 54.1094 22.6935 53.1821 29.9735C52.5548 34.8002 49.773 38.1335 45.4094 40.3468C41.7003 42.2402 37.8003 43.3602 33.6275 43.6535C33.273 43.6802 32.8912 43.7868 32.5366 43.7068C27.3548 42.6135 22.0366 42.0268 17.0184 40.1602C14.5911 39.2535 12.3547 38.0268 10.0911 36.8002C5.80928 34.4802 3.57292 30.7468 2.26383 26.3468C1.82746 24.9335 1.66383 23.4401 1.30928 21.9735C0.436552 18.4268 1.17292 15.1735 3.27292 12.1868C4.30928 10.7201 5.40019 9.33347 6.54565 7.97347C8.53656 5.6268 11.0456 4.1068 14.0456 3.36014C15.1184 3.07568 16.182 2.77347 17.2366 2.45348C17.6184 2.34681 17.8638 2.32014 18.0275 2.80014C17.482 3.3868 16.6366 3.44014 15.9275 3.57347C8.72746 4.88014 5.07292 10.0001 2.18201 15.8668C0.98201 18.2935 2.18201 20.4801 3.27292 22.6135C3.62746 23.2801 4.30928 23.3868 4.96383 23.3068C6.21837 23.1201 6.65474 23.7335 6.98201 24.8001C7.33656 26.0268 7.41837 27.2802 7.66383 28.5335C7.93656 29.8668 8.37292 31.1735 9.13656 32.3202C10.2547 33.9735 11.8911 34.2402 13.4729 33.0935C13.6911 32.9335 13.9184 32.7823 14.1547 32.6402C16.6638 31.2268 18.4638 32.0002 19.0638 34.7735C19.2002 35.4135 19.3366 36.0002 19.6366 36.5868C20.1275 37.4935 20.6729 38.0802 21.9002 37.9468C23.2638 37.8135 24.0275 38.8268 24.4911 39.8668C25.5547 42.2402 27.1093 42.0002 29.0457 41.3068C30.4639 40.8268 31.473 39.8402 32.5366 38.9068C33.6821 37.8935 34.8548 36.9602 36.3548 36.4802C37.3366 36.1602 38.1548 36.2668 38.8912 36.9868C39.6003 37.6268 40.3094 38.2935 41.0457 38.9068C42.4639 40.0268 43.5003 39.8135 43.8275 38.0802C44.5639 34.3735 47.5094 33.4135 50.5912 32.5335C50.8366 32.4535 51.0003 32.6668 51.0821 32.9335C50.673 33.5468 49.8821 33.5468 49.2548 33.7068C46.7457 34.3202 45.0821 35.6802 44.5639 38.2935C44.4548 38.9068 44.1548 39.4935 43.9366 40.1068C47.0185 38.9068 49.773 37.1735 51.0548 34.1068ZM39.0821 38.0535C37.9366 36.8535 36.7912 36.8268 35.4821 37.6002C34.9912 37.9202 34.473 38.2402 34.0094 38.5868C32.4275 39.8135 31.1185 41.3868 28.8275 42.1868C31.0094 42.7468 32.7821 43.2002 34.7185 42.8268C37.6366 42.2668 40.6639 42.1868 43.173 40.3468C41.2912 40.4802 40.173 39.2002 39.0821 38.0535ZM43.8821 40.1335C43.6366 40.0535 43.4185 40.0535 43.2821 40.3202C43.5003 40.3202 43.7185 40.2935 43.8821 40.1335ZM24.6547 41.4135C23.782 40.2135 23.5366 38.8268 21.9547 38.6668C19.9638 38.4802 19.0911 37.7868 18.5456 35.8135C18.4093 35.3068 18.3275 34.7468 18.1366 34.2668C17.5093 32.6402 16.582 32.2668 15.0002 33.0135C14.6184 33.2002 14.2638 33.4402 13.9366 33.6535C12.0002 35.0402 9.98201 34.7202 8.5911 32.7735C7.63656 31.4135 7.14565 29.8668 6.87292 28.2402C6.68201 27.0935 6.62746 25.9201 6.1911 24.8001C6.05474 24.4268 6.00019 23.9468 5.42746 24.0268C4.11837 24.2135 3.05474 23.8135 2.2911 22.6935C2.2911 23.1468 2.34565 23.4935 2.42746 23.8401C3.16383 27.7335 4.44565 31.5202 7.60928 34.1068C12.4366 38.0802 18.1366 40.3468 24.6547 41.4135Z" fill="#313131"/>
<path d="M23.3458 14.7467C24.1639 13.7334 25.0912 13.2801 26.1003 13.3601C28.9367 13.6267 31.7458 14.0801 34.1185 15.9467C36.9821 18.2134 37.9367 23.2001 32.8094 25.4667C30.573 26.4534 28.7458 26.2934 26.8639 25.0134C25.1185 23.8401 23.0458 23.1734 21.6821 21.4667C20.4276 19.8934 20.1276 17.8934 21.0276 16.2667C21.1639 16.0001 21.3003 15.6801 21.7367 15.7867C21.9276 16.0001 21.873 16.2134 21.7639 16.4267C20.2912 19.2534 22.2003 21.5734 24.3003 22.7201C25.6367 23.4401 27.0276 24.1067 28.2548 24.9867C30.0821 26.2934 33.7912 24.6934 35.2094 22.6134C36.1912 21.1467 35.8912 18.4801 34.2003 17.0667C31.2548 14.5867 27.9548 13.3334 24.0276 14.7734C23.9185 14.8001 23.7821 14.7467 23.3458 14.7467Z" fill="#313131"/>
<path d="M19.9365 2.85314C22.9638 1.99979 26.0183 1.9998 29.1003 2.6398C26.0456 2.85314 22.9911 2.85314 19.9365 2.85314Z" fill="#313131"/>
</svg>
