<svg width="300" height="240" viewBox="0 0 300 240" fill="none" xmlns="http://www.w3.org/2000/svg">
<g opacity="0.6">
<path d="M44.3086 50.6716C46.8009 54.3445 44.8333 56.0498 43.9151 58.0175C42.2098 61.8216 40.2421 65.6257 38.1433 69.1675C27.1245 87.6634 28.6986 107.865 34.6015 126.492C39.0615 140.134 44.1774 154.301 53.0974 166.238C59.1315 174.458 65.1219 182.766 71.0686 191.162C77.1901 199.907 85.3668 205.635 95.5986 208.346C104.256 210.576 112.52 213.855 120.784 217.266C158.694 233.007 192.538 222.25 224.807 201.393C231.366 197.196 237.663 192.604 243.828 187.882C253.797 180.143 260.225 170.042 263.504 157.712C269.67 134.362 272.293 111.275 264.423 87.5322C253.273 53.6887 231.497 31.9134 196.998 22.8622C169.976 15.6475 142.953 11.1875 115.275 17.7463C104.65 20.2387 94.8115 25.0922 84.7109 29.1587C82.8745 29.9457 81.038 32.1757 78.5456 29.8146C79.0703 26.9287 81.9562 26.7975 83.9239 25.8793C115.406 9.74457 148.463 7.38339 182.569 15.6475C192.013 18.0087 201.589 20.2387 210.771 23.7804C247.501 37.6851 265.078 66.6751 271.637 103.405C276.228 128.59 270.981 152.858 259.438 175.683C257.339 179.749 254.453 183.16 251.174 186.177C227.693 206.772 200.933 221.988 170.238 227.891C151.873 231.433 133.509 226.317 116.193 219.364C108.979 216.347 101.633 213.724 94.1556 211.494C83.7927 208.608 75.2662 202.967 68.8386 194.047C57.1639 177.65 45.7515 161.384 37.0939 142.626C30.2727 127.41 29.4857 111.931 26.2062 96.4522C25.288 91.7298 27.6492 87.2698 29.0921 82.941C32.7651 71.791 37.4874 61.1657 44.3086 50.6716Z" fill="#F06B04"/>
<path fill-rule="evenodd" clip-rule="evenodd" d="M203.82 101.568C203.426 111.669 197.13 122.425 190.44 132.919C188.472 136.067 184.799 137.248 180.995 136.33C171.157 134.231 161.975 130.427 156.99 121.113C151.087 109.701 140.986 104.979 129.705 101.83C123.54 100.125 118.949 96.8456 116.456 90.6804C113.308 82.6786 116.194 67.7245 123.409 63.1333C127.738 60.3786 133.509 58.8045 139.019 59.198C150.3 60.1163 161.581 60.641 172.862 62.2151C190.178 64.7074 203.82 81.2357 203.82 101.568ZM200.409 99.8627C200.278 83.0721 187.948 68.5115 172.6 65.7568C161.45 63.658 150.169 63.1333 138.888 62.871C132.853 62.7398 126.163 63.3957 122.359 70.0857C115.669 81.8915 116.85 95.6651 134.165 99.7315C144.528 102.093 153.71 107.471 159.089 117.965C163.549 126.492 171.55 130.952 180.995 132.657C183.75 133.182 186.636 133.05 188.079 130.427C193.85 120.457 200.147 110.619 200.409 99.8627Z" fill="#F06B04"/>
<path d="M207.493 200.606C192.145 219.233 87.3353 198.638 77.4971 174.895C96.9112 186.832 116.325 197.457 139.675 200.212C162.368 202.836 184.668 208.739 207.493 200.606Z" fill="#F06B04"/>
<path d="M62.8059 158.761C58.3459 160.335 56.6406 157.449 54.4106 155.743C58.0836 153.776 60.4448 155.088 62.8059 158.761Z" fill="#F06B04"/>
</g>
</svg>
