<svg width="200" height="160" viewBox="0 0 200 160" fill="none" xmlns="http://www.w3.org/2000/svg">
<g opacity="0.6">
<path fill-rule="evenodd" clip-rule="evenodd" d="M187.721 121.626C197.421 97.5263 195.521 73.9263 182.221 51.3263C167.321 25.8263 145.121 11.5262 116.121 7.42624C114.721 7.22624 112.921 7.62622 112.421 5.02622C116.421 3.92622 120.121 5.12622 123.721 6.02622C133.621 8.52622 143.121 12.1262 152.421 16.4262C161.021 20.4262 166.721 27.7262 172.921 34.4262C191.921 54.6262 198.921 78.9263 195.421 106.126C193.221 124.226 182.921 136.726 166.921 145.126C153.421 152.126 139.021 156.326 123.821 157.426C122.421 157.626 121.021 157.926 119.721 157.626C100.721 153.626 81.2212 151.426 62.9212 144.426C54.0212 140.926 45.7212 136.426 37.4212 131.726C21.8212 123.026 13.6212 109.026 8.82121 92.6263C7.22121 87.3263 6.62121 81.6262 5.32121 76.2262C2.12121 62.8262 4.82119 50.7262 12.5212 39.5262C16.2212 34.0262 20.3212 28.8262 24.5212 23.7262C31.8212 14.8262 40.9212 9.22627 52.0212 6.32627C55.9545 5.32627 59.8545 4.19291 63.7212 2.92624C65.0212 2.52624 66.0212 2.42623 66.6212 4.22623C64.5212 6.52623 61.5212 6.72623 58.9212 7.22623C32.4212 12.1262 19.1212 31.2262 8.52119 53.2262C4.02119 62.4262 8.52119 70.6263 12.5212 78.6263C13.7212 81.0263 16.2212 81.5263 18.7212 81.1263C23.2212 80.4263 24.9212 82.7263 26.0212 86.8263C27.3212 91.4263 27.6212 96.1262 28.6212 100.726C29.6212 105.826 31.1212 110.626 34.0212 114.926C38.0212 121.126 44.0212 122.126 49.8212 117.926C50.6879 117.326 51.5545 116.76 52.4212 116.226C61.5212 110.826 68.1212 113.726 70.4212 124.226C70.8212 126.526 71.4212 128.826 72.5212 130.926C74.2212 134.326 76.2212 136.626 80.7212 136.126C85.7212 135.526 88.6212 139.326 90.3212 143.226C94.1212 152.126 99.8212 151.226 107.021 148.726C112.121 146.926 115.921 143.226 119.821 139.626C123.921 135.826 128.221 132.426 133.721 130.526C137.421 129.326 140.321 129.826 143.121 132.426C145.721 134.926 148.221 137.326 151.021 139.626C156.121 143.926 160.021 143.126 161.221 136.626C163.821 122.726 174.721 119.126 185.921 115.726C186.921 115.426 187.421 116.226 187.821 117.226C186.221 119.626 183.421 119.526 181.121 120.126C171.921 122.526 165.721 127.626 163.921 137.326C163.521 139.626 162.421 141.926 161.621 144.126C172.921 139.626 183.021 133.226 187.721 121.626ZM143.721 136.426C139.621 132.026 135.421 131.826 130.621 134.826C128.721 135.926 126.921 137.126 125.121 138.526C119.421 143.126 114.621 149.026 106.121 152.026C114.221 154.126 120.721 155.726 127.821 154.426C138.521 152.326 149.621 151.926 158.821 145.126C151.921 145.526 147.821 140.826 143.721 136.426ZM161.321 144.226C160.421 144.026 159.621 144.026 159.121 144.926C159.921 145.026 160.721 144.926 161.321 144.226ZM90.8212 149.126C87.6212 144.626 86.7212 139.426 80.9212 138.826C73.7212 138.126 70.5212 135.426 68.5212 128.126C67.9212 126.126 67.7212 124.126 66.9212 122.226C64.7212 116.126 61.2212 114.826 55.4212 117.626C54.1212 118.326 52.8212 119.126 51.5212 120.026C44.4212 125.126 37.0212 124.026 32.0212 116.726C28.5212 111.626 26.7212 105.826 25.7212 99.7262C25.0212 95.4262 24.7212 90.9262 23.2212 86.7262C22.6212 85.3262 22.5212 83.6262 20.3212 83.9262C15.6212 84.5262 11.6212 83.1263 8.82121 78.8263C8.82121 80.6263 9.12121 81.9262 9.32121 83.2262C12.1212 97.8262 16.8212 112.026 28.3212 121.726C46.0212 136.526 67.0212 145.026 90.8212 149.126Z" fill="#F06B04"/>
<path d="M86.1214 49.0265C89.0214 45.2265 92.5214 43.6265 96.1214 43.9265C106.621 44.8265 116.921 46.6265 125.521 53.6265C136.021 62.1265 139.521 80.7265 120.821 89.2265C112.621 92.9265 105.921 92.4265 98.9214 87.6265C92.6214 83.1265 84.9214 80.7265 79.9214 74.3265C75.3214 68.4265 74.3214 60.8265 77.5214 54.8265C78.1214 53.7265 78.6214 52.6265 80.1214 53.0265C80.8214 53.7265 80.6214 54.5265 80.2214 55.3265C74.9214 66.0265 81.8214 74.6265 89.6214 78.9265C94.5214 81.7265 99.5214 84.2265 104.021 87.5265C110.721 92.4265 124.421 86.3265 129.521 78.6265C133.121 73.1265 132.021 63.0265 125.921 57.7265C115.121 48.5265 102.921 43.7265 88.6214 49.1265C88.2214 49.3265 87.6214 49.1265 86.1214 49.0265Z" fill="#F06B04"/>
<path d="M73.6211 4.52635C84.7211 1.32635 95.9211 1.32639 107.121 3.62639C95.9211 4.42639 84.8211 4.42635 73.6211 4.52635Z" fill="#F06B04"/>
</g>
</svg>
