<svg width="416" height="360" viewBox="0 0 416 360" fill="none" xmlns="http://www.w3.org/2000/svg">
<g opacity="0.6">
<path d="M70.5942 288.767C68.9636 290.944 69.6883 292.395 70.5942 293.483C89.7993 313.618 109.548 334.842 138.899 337.2C170.606 339.921 202.856 342.46 233.656 330.125C235.106 329.581 236.555 329.037 238.005 328.855C290.728 319.967 328.051 286.046 365.193 251.762C381.681 236.525 389.652 217.297 391.827 195.53C393.638 174.851 397.443 153.99 392.732 133.13C392.37 131.316 391.645 129.683 390.921 128.051C390.921 127.688 390.015 127.507 388.928 126.962C386.21 129.865 388.203 133.13 388.384 136.214C391.283 164.33 389.834 192.083 381.137 219.111C374.614 239.428 358.308 252.125 343.089 265.548C334.574 273.167 325.152 279.335 316.456 286.953C295.982 304.548 271.885 313.437 246.52 321.962C212.821 333.39 179.121 334.297 144.697 333.209C132.377 333.028 121.325 328.674 110.997 322.144C98.496 314.162 87.4441 304.186 77.1169 293.665C75.3051 291.851 74.2178 288.767 70.5942 288.767Z" fill="#F06B04"/>
<path d="M144.154 104.105C134.008 109.547 120.963 113.175 119.151 120.431C115.527 134.217 107.012 150.361 112.266 162.878C120.238 181.561 129.478 200.064 147.778 214.031C162.272 225.096 175.86 224.189 190.536 223.464C200.863 222.919 210.647 222.919 220.431 225.64C221.88 226.185 223.511 226.366 224.779 225.096C225.504 221.65 222.605 221.287 220.431 220.743C212.096 218.566 203.581 216.571 194.884 218.385C170.606 224.008 151.945 214.212 136.001 196.799C126.579 186.64 124.768 172.492 116.252 161.789C114.078 159.25 114.621 154.715 117.52 151.45C120.782 147.822 122.05 143.105 121.144 138.571C118.789 126.054 124.768 119.343 135.276 114.445C138.718 112.812 143.067 111.724 144.154 104.105Z" fill="#F06B04"/>
<path d="M238.73 76.1714C242.354 83.2458 246.883 83.79 250.869 84.1528C274.423 86.3295 284.569 101.567 286.743 122.609C287.649 132.948 292.722 142.743 290.548 153.264C286.924 172.13 274.966 184.827 259.928 195.348C255.942 198.25 250.507 199.702 248.695 205.688C249.964 206.051 251.232 206.776 251.594 206.413C270.618 194.804 289.642 182.106 293.809 158.888C297.976 134.944 292.179 111.543 279.134 90.5016C278.409 89.0505 276.416 88.1435 274.966 87.2365C264.277 81.6133 252.5 79.7993 238.73 76.1714Z" fill="#F06B04"/>
<path d="M38.1645 211.674C46.3176 212.037 53.7458 217.116 62.4424 215.302C53.2022 208.771 42.3315 207.864 29.6489 204.055C33.2725 209.497 33.4537 213.125 33.0913 216.934C30.9172 234.167 40.1573 247.409 48.8539 260.651C49.5786 261.739 51.2094 262.464 51.2094 263.371C52.84 279.153 66.2474 282.237 77.1182 288.223C84.1842 291.851 87.8076 300.739 97.7725 300.558C101.034 300.558 99.5843 309.446 106.832 307.632C105.201 300.92 103.751 294.934 95.0548 294.934C91.7936 294.934 89.2572 293.302 87.2642 290.581C81.8288 284.051 74.5816 280.06 66.6097 277.702C63.892 276.976 60.6307 276.432 60.2684 273.167C59.1813 263.734 52.2964 257.567 47.5858 250.13C40.1574 238.52 36.1715 226.004 38.1645 211.674Z" fill="#F06B04"/>
<path d="M137.994 164.148C143.067 162.878 143.611 160.883 143.973 159.25C151.22 132.948 171.694 120.613 194.885 111.362C208.473 105.92 223.149 103.018 237.643 100.478C245.253 99.2083 252.862 100.659 260.11 103.199C261.74 103.743 263.19 103.925 265.545 101.204C259.385 96.6687 252.319 94.6734 245.615 95.399C209.741 99.3897 175.317 107.008 149.952 136.213C143.067 144.013 140.893 153.264 137.994 164.148Z" fill="#F06B04"/>
<path d="M235.831 307.269C257.21 302.008 275.147 292.032 290.366 277.339C302.505 265.366 315.731 255.208 331.675 248.678C341.459 244.687 350.336 239.246 357.221 229.269C354.866 228.906 353.597 228.18 353.235 228.543C342.727 238.883 329.319 244.325 316.456 250.673C306.672 255.571 298.338 262.464 290.728 270.264C277.502 283.506 262.283 293.483 244.527 299.65C241.085 300.739 236.555 301.101 235.831 307.269Z" fill="#F06B04"/>
<path d="M225.864 263.553C246.337 271.353 302.684 231.99 310.475 205.869C286.378 229.995 264.637 257.204 225.864 263.553Z" fill="#F06B04"/>
<path d="M283.118 50.9572C282.574 45.1526 279.313 41.706 275.146 39.1665C265.543 33.5433 255.397 29.0084 244.526 27.013C236.011 25.5619 227.677 24.6549 219.524 21.5712C214.813 19.9386 210.102 21.934 205.21 25.9247C233.112 30.2781 261.195 30.6409 283.118 50.9572Z" fill="#F06B04"/>
<path d="M159.918 95.9438C164.085 99.9345 166.802 99.0276 168.795 98.1206C178.036 94.1299 187.638 91.7717 197.965 92.4973C201.589 92.6787 204.488 90.3206 205.756 86.8741C209.017 77.8043 213.909 73.2694 223.331 80.1624C223.874 80.7066 224.961 80.7066 225.867 80.7066C226.411 80.7066 226.954 80.1624 227.316 79.7996C220.613 69.0973 209.923 68.3717 204.488 79.2555C200.864 86.5113 196.154 88.5066 188.544 87.781C178.398 86.6927 170.607 93.5857 159.918 95.9438Z" fill="#F06B04"/>
<path d="M62.804 112.449C70.9571 110.817 74.2183 104.649 78.3855 99.2074C79.2914 97.9376 80.3785 96.6678 80.7409 95.2167C86.3575 78.8911 96.8657 68.9144 114.984 69.0957C116.071 69.0957 117.52 68.7329 117.883 67.1004C111.542 62.9283 92.5175 66.012 87.6256 73.2678C79.1101 86.1469 73.4936 100.659 62.804 112.449Z" fill="#F06B04"/>
<path d="M198.508 28.645C196.877 27.3752 195.246 28.1008 194.522 29.1892C181.296 46.0589 161.728 48.0543 143.067 51.8636C135.819 53.3147 135.819 52.9519 132.196 58.031C156.655 59.6636 193.978 43.1566 198.508 28.645Z" fill="#F06B04"/>
<path d="M371.898 135.669C378.601 126.599 381.5 118.617 383.674 110.455C384.761 107.008 382.406 103.924 379.688 101.748C374.495 97.5151 369.18 93.4035 363.744 89.4128C359.94 86.5104 353.417 85.9663 355.229 77.6221C349.794 82.8825 348.888 86.8732 355.229 90.1384C361.57 93.4035 367.006 97.757 372.803 101.929C378.42 105.92 379.688 110.273 376.789 116.803C374.434 121.883 370.267 126.599 371.898 135.669Z" fill="#F06B04"/>
<path d="M361.389 214.213C369.905 191.72 372.985 168.32 371.173 144.195C367.549 167.413 364.469 190.813 361.389 214.213Z" fill="#F06B04"/>
<path d="M164.083 313.98C165.714 313.799 166.439 313.98 166.801 313.618C181.477 298.018 197.602 304.004 214.089 309.808C217.713 310.897 221.517 314.706 225.866 311.078C207.567 293.846 171.331 295.297 164.083 313.98Z" fill="#F06B04"/>
<path d="M50.1211 133.311C41.0621 137.483 30.7348 141.292 26.7488 150.906C22.0381 162.516 18.2334 175.213 23.6688 188.092C24.9371 177.39 26.5676 166.869 29.4665 156.53C32.5466 145.283 45.2292 143.106 50.1211 133.311Z" fill="#F06B04"/>
<path d="M319.716 48.5989C324.608 52.4082 322.253 58.9385 327.145 63.8361C329.863 56.9431 327.87 51.5013 324.79 46.6036C321.71 41.3431 317.361 43.8826 313.375 45.3338C305.222 48.2361 297.069 51.1385 286.923 48.2361C292.721 56.0361 292.721 56.0361 319.716 48.5989Z" fill="#F06B04"/>
<path d="M318.991 87.9627C325.513 87.0558 324.607 81.7953 326.963 78.893C328.956 76.3534 330.586 73.2697 332.76 70.7302C339.283 63.1116 340.189 63.1116 347.074 71.093C347.617 71.8186 348.342 72.3627 349.067 72.9069C349.429 73.0883 350.154 73.0883 351.603 73.2697C351.784 66.3767 347.617 63.1116 342.725 60.2092C338.015 57.4883 335.478 60.7534 332.579 63.8372C326.057 70.5488 320.621 77.6232 318.991 87.9627Z" fill="#F06B04"/>
<path d="M278.406 83.7897C294.531 87.4176 303.59 100.115 314.099 110.818C312.468 96.306 293.444 81.6129 278.406 83.7897Z" fill="#F06B04"/>
<path d="M81.2855 153.627C74.0383 142.381 80.5609 137.664 86.5398 132.223C88.8952 130.046 91.0693 126.599 89.4386 122.427C72.9513 132.223 68.2406 145.283 81.2855 153.627Z" fill="#F06B04"/>
<path d="M76.028 182.288C70.955 195.167 77.2963 211.492 90.3413 213.488C79.1081 204.418 79.2893 192.809 76.028 182.288Z" fill="#F06B04"/>
<path d="M137.813 314.888C130.022 311.261 122.05 308.721 113.354 309.809C120.782 315.07 128.935 316.521 137.813 314.888Z" fill="#F06B04"/>
<path d="M130.021 230.175C117.7 233.078 112.265 239.971 114.077 249.222C116.975 241.785 124.042 237.975 130.021 230.175Z" fill="#F06B04"/>
<path d="M101.938 238.339C106.528 231.325 111.057 224.311 115.526 217.297C114.56 216.692 113.594 216.088 112.628 215.483C106.286 221.106 102.3 228.543 98.8579 236.343C99.945 236.948 100.972 237.613 101.938 238.339Z" fill="#F06B04"/>
</g>
</svg>
