<svg width="24" height="24" viewBox="0 0 24 24" fill="none" xmlns="http://www.w3.org/2000/svg">
<path fill-rule="evenodd" clip-rule="evenodd" d="M22 11.0873C22 6.6208 17.5229 3 12 3C6.47705 3 2 6.6208 2 11.0873C2 15.1244 5.6582 18.468 10.4393 19.0743C10.9347 19.1372 11.2762 19.6102 11.1895 20.1021C11.1011 20.6037 10.9898 21.0869 10.8991 21.4477C10.8256 21.7412 11.1024 22.0038 11.3902 21.9101C12.9667 21.3962 16.7433 19.5394 19.9839 15.9564C20.027 15.9102 20.1775 15.7426 20.2105 15.7043L20.2092 15.7034C21.3365 14.3944 22 12.8038 22 11.0873ZM8.4518 13.4598C8.3814 13.5289 8.27755 13.5637 8.14247 13.5637H6.14353C5.96357 13.5637 5.83421 13.5192 5.75545 13.4299C5.67625 13.341 5.63664 13.1967 5.63664 12.9987V9.49228C5.63664 9.3066 5.67492 9.16668 5.75016 9.0734C5.82496 8.98012 5.92396 8.93347 6.04673 8.93347C6.17037 8.93347 6.27113 8.97923 6.34857 9.07119C6.42557 9.16316 6.46474 9.3044 6.46474 9.49228V12.8073H8.14292C8.27624 12.8073 8.3792 12.8434 8.45048 12.9155C8.52264 12.9886 8.55784 13.0796 8.55784 13.1892C8.55784 13.3001 8.5222 13.3912 8.4518 13.4598ZM9.91349 13.0783C9.91349 13.2671 9.87346 13.407 9.79514 13.5003C9.71638 13.5936 9.61429 13.6398 9.48757 13.6398C9.36657 13.6398 9.26669 13.5931 9.18793 13.499C9.10917 13.4044 9.06956 13.2644 9.06956 13.0779V9.49184C9.06956 9.30528 9.10829 9.16624 9.18617 9.07296C9.26317 8.97968 9.36437 8.93303 9.48757 8.93303C9.61385 8.93303 9.71638 8.97879 9.79514 9.07075C9.8739 9.16272 9.91349 9.30308 9.91349 9.49184V13.0783ZM14.4979 13.0414C14.4979 13.4404 14.3391 13.6398 14.021 13.6398C13.9418 13.6398 13.8705 13.6283 13.8062 13.6037C13.7433 13.5804 13.683 13.5421 13.628 13.4915C13.5717 13.4396 13.5211 13.3788 13.4731 13.3093C13.4252 13.2402 13.3777 13.1694 13.3297 13.0972L11.6678 10.4467V13.1118C11.6678 13.2856 11.6291 13.4167 11.5516 13.506C11.4729 13.5949 11.373 13.6393 11.252 13.6393C11.1266 13.6393 11.0258 13.5949 10.9506 13.5047C10.874 13.4145 10.8362 13.2834 10.8362 13.1113V9.60008C10.8362 9.45092 10.8525 9.33432 10.8841 9.24896C10.9215 9.15568 10.9853 9.07956 11.0729 9.01971C11.1605 8.96163 11.2555 8.93216 11.3563 8.93216C11.4368 8.93216 11.505 8.94579 11.5609 8.97219C11.6181 8.99991 11.6678 9.036 11.7109 9.08176C11.7536 9.12708 11.7976 9.1856 11.842 9.25864C11.8869 9.3308 11.9336 9.40604 11.9815 9.48524L13.6852 12.1697V9.46016C13.6852 9.28416 13.7217 9.1526 13.7939 9.06459C13.8665 8.97659 13.9642 8.93216 14.0874 8.93216C14.2137 8.93216 14.3144 8.97527 14.3879 9.06371C14.4614 9.15172 14.4979 9.28416 14.4979 9.46016V13.0414ZM18.2648 13.4633C18.2006 13.5302 18.1046 13.5641 17.977 13.5641H15.7753C15.5997 13.5641 15.4725 13.5197 15.3955 13.4303C15.3185 13.3415 15.2794 13.1971 15.2794 12.9991V9.575C15.2794 9.44256 15.297 9.33432 15.3313 9.25072C15.366 9.16712 15.4197 9.10552 15.4936 9.06724C15.5671 9.0294 15.6613 9.01003 15.7757 9.01003H17.9154C18.0444 9.01003 18.1407 9.04259 18.2032 9.10772C18.2657 9.17372 18.2974 9.25908 18.2974 9.36424C18.2974 9.47248 18.2657 9.5596 18.2032 9.62472C18.1407 9.6894 18.0448 9.72196 17.9154 9.72196H16.0899V10.8413H17.7711C17.8948 10.8413 17.9872 10.8735 18.0474 10.9359C18.109 10.9984 18.1394 11.0825 18.1394 11.185C18.1394 11.2875 18.1095 11.3729 18.0501 11.4375C17.9894 11.5022 17.8974 11.5352 17.7716 11.5352H16.0903V12.8328H17.9779C18.1055 12.8328 18.2014 12.8667 18.2657 12.9336C18.3308 13.0004 18.3638 13.0902 18.3638 13.2015C18.3629 13.3084 18.3299 13.3965 18.2648 13.4633Z" fill="#313131"/>
</svg>
